<?xml version="1.0" encoding="UTF-8"?>
<svg width="128px" height="146px" viewBox="0 0 128 146" version="1.1" xmlns="http://www.w3.org/2000/svg" xmlns:xlink="http://www.w3.org/1999/xlink">
    <defs>
        <polygon id="path-1" points="0.0915164131 0.0554943238 127.967206 0.0554943238 127.967206 146 0.0915164131 146"></polygon>
    </defs>
    <g id="Style-Tile" stroke="none" stroke-width="1" fill="none" fill-rule="evenodd">
        <g id="Style-tile---Corner-Image-Treatment" transform="translate(-32.000000, -26.000000)">
            <g id="Group-2" transform="translate(32.000000, 26.000000)">
                <g id="Group-24">
                    <g id="Group-3">
                        <mask id="mask-2" fill="white">
                            <use xlink:href="#path-1"></use>
                        </mask>
                        <g id="Clip-2"></g>
                        <path d="M95.8583699,27.1922596 C88.3930697,22.5523857 81.3526597,20.7243675 74.3098927,16.0849029 C69.9446725,13.1319582 63.888807,6.10267722 58.8175885,0.0554943238 C57.8314043,9.75769054 54.875209,13.6950865 51.4953531,16.5062259 C44.3123907,22.1306534 39.8069752,23.8175826 33.6086597,27.1922596 C28.3984756,29.8645609 0.0915164131,46.7360017 0.0915164131,83.0110164 C0.0915164131,119.286133 30.6516445,146.000041 64.5923459,146.000041 C98.5341745,146.000041 127.967308,121.394795 127.967308,84.1351243 C127.967308,46.8758629 100.364605,30.0044221 95.8583699,27.1922596" id="Fill-1" fill="#25A8E0" mask="url(#mask-2)"></path>
                    </g>
                    <path d="M25.2210356,131.201017 C25.2210356,131.201017 15.9552532,121.284114 15.2169841,113.864864 C14.4786129,106.445614 15.7495261,107.009833 17.1508183,107.009833 C18.5521104,107.009833 65.2569467,133.735016 87.4341173,133.004748 C99.6416432,132.60281 102,132.529712 102,132.529712 C102,132.529712 92.6070037,144 61.637376,144 C41.5286045,144 25.2210356,131.201017 25.2210356,131.201017" id="Fill-4" fill="#FFFFFF"></path>
                    <path d="M114.267186,43.3004998 C113.03409,41.9637886 112.623058,40.6270774 107.3824,36 C117.172772,48.5646743 95.5167275,79.1723797 69.3452911,88.222943 C42.947787,97.3531949 0.0477583398,94.9471147 0.205800152,78.8775835 C0.205800152,78.8775835 -0.00886132124,81.0903547 0.000284141247,83.6074848 C0.00716892762,85.5151774 0.103042147,87.5147946 0.308558158,89.2628016 C2.09253989,95.6251358 14.6987893,100.771988 27.4902085,101.932356 C29.9755137,106.765493 37.6805144,119.002879 52.1263376,118.999999 C54.0497619,118.999588 56.0928994,118.782116 58.2590381,118.301311 C76.9843212,114.144653 80.694399,99.0131846 81.3922286,91.9097983 C107.307489,79.5577639 118.034295,54.8605842 114.267186,43.3004998" id="Fill-6" fill="#0A2240"></path>
                    <path d="M123,78 C121.171825,81.5180591 119.086575,84.2556311 116.977739,86.7908622 C116.53735,86.5115848 115.668471,85.7417096 113.747914,78.6352873 C114.50424,82.2273238 114.344926,88.9632469 112.700686,92.1342755 C105.947858,98.0717528 92.8945905,100.121692 91,99.0627438 C93.3156336,104.440544 100.369192,108.379407 105.23136,106.542726 C110.093529,104.706046 111.295105,103.493633 114.282753,100.49311 C115.35274,100.312503 115.994546,99.7267038 116.190585,98.339602 C119.907764,93.6277006 121.815596,88.2176567 123,78" id="Fill-8" fill="#FFFFFF"></path>
                    <path d="M86.116977,113.000039 C88.9905258,113.01411 95,116.692218 95,117.488382 C95,117.810932 94.7737493,118.435806 93.9163294,118.435806 C92.3766481,118.435806 90.0235171,115.674636 86.4105248,115.663496 C82.7975326,115.652357 80.1382613,119 77.1212414,119 C76.4408379,119 76,118.535766 76,118.095863 C76,116.764134 83.2434281,112.985969 86.116977,113.000039" id="Fill-10" fill="#FFFFFF"></path>
                    <path d="M16,114 C27.7151796,126.608717 36.484332,131.618641 49.5274264,135.26247 C62.4399013,138.869862 72.8087101,138.634639 92,134.5817 C77.5589395,138.767332 64.6781764,140.93039 49.0772426,136.729982 C34.0998363,132.697387 24.5264711,125.425011 16,114" id="Fill-12" fill="#0A2240"></path>
                    <polygon id="Fill-14" fill="#0A2240" points="25.7420587 115 25 122.739357 26 128"></polygon>
                    <polygon id="Fill-16" fill="#0A2240" points="43 125 41 133.394367 41.7478996 137 42.4663659 133.963583"></polygon>
                    <polygon id="Fill-18" fill="#0A2240" points="66 131 64.4113672 137.72273 61 141 61.9936384 137.545994"></polygon>
                    <polygon id="Fill-20" fill="#0A2240" points="81 134 80.1238947 137.192328 78 140 78.9545279 137.184786"></polygon>
                    <path d="M117,87.4745661 C115.856842,85.3375007 114.948736,83.2659981 113.777087,79 C114.892373,87.6081013 113.130667,91.8830352 112,92.9468992 L114.482554,100.196857 C114.482554,100.196857 114.953279,101.344657 115.745768,104 C115.745768,100.889935 115.764246,99.0123093 116.764122,97.6048683 L117,87.4745661 Z" id="Fill-22" fill="#FFFFFF"></path>
                </g>
            </g>
        </g>
    </g>
</svg>