
<svg width="706px" height="94px" viewBox="0 0 706 94" version="1.1" xmlns="http://www.w3.org/2000/svg" xmlns:xlink="http://www.w3.org/1999/xlink">
    <!-- Generator: Sketch 49 (51002) - http://www.bohemiancoding.com/sketch -->
    <desc>Created with Sketch.</desc>
    <defs>
        <polygon id="path-1" points="0 0 706 0 706 71 0 71"></polygon>
    </defs>
    <g id="BADCamp-Splash-Page-(In-Progress)" stroke="none" stroke-width="1" fill="none" fill-rule="evenodd">
        <g id="BADCAMP-Circus" transform="translate(-671.000000, -992.000000)">
            <g id="region/about-copy" transform="translate(-71.000000, 868.000000)">
                <g id="Logo/Badcamp" transform="translate(1060.000000, 142.000000)">
                    <g id="badcamp" transform="translate(34.561318, 39.106512) rotate(-5.000000) translate(-34.561318, -39.106512) translate(3.061318, 2.606512)">
                        <path d="M46.1740185,15.3092157 C42.658956,13.10382 39.3214218,12.2501184 35.9838877,10.0447226 C33.9245581,8.65745758 31.0485979,5.31379307 28.6697172,2.43255025 C28.2081433,7.02119623 26.787916,8.90645387 25.1901603,10.258148 C21.7816148,12.9259655 19.6512739,13.7440961 16.7398079,15.3447866 C14.2899158,16.625339 0.868767947,24.6287912 0.868767947,41.8451064 C0.868767947,59.0614215 15.3195806,71.7602324 31.368149,71.7602324 C47.4167174,71.7602324 61.3349448,60.0929776 61.3349448,42.3786698 C61.3704505,24.6643621 48.3043595,16.6609099 46.1740185,15.3092157 Z" id="Shape" fill="#4799B5" fill-rule="nonzero"></path>
                        <path d="M12.6848908,65.2811362 C12.6848908,65.2811362 8.27940444,60.5398494 7.92412328,56.974972 C7.56884212,53.4100947 8.17282009,53.6952849 8.84785429,53.6952849 C9.52288849,53.6952849 31.6924328,66.4575458 42.2442832,66.1367068 C48.0353661,65.9584629 49.1722658,65.9228141 49.1722658,65.9228141 C49.1722658,65.9228141 44.6957232,71.4127253 29.9870832,71.4127253 C20.4300201,71.4127253 12.6848908,65.2811362 12.6848908,65.2811362 Z" id="Shape" fill="#FFFFFF" fill-rule="nonzero"></path>
                        <path d="M31.4905388,72.6290004 C25.9876826,72.6290004 20.5203286,71.168584 15.692016,68.4258508 C10.8992057,65.6831176 6.92294822,61.7649272 4.15376893,57.0987188 C2.84018389,54.8190444 1.81061723,52.3968904 1.10057126,49.9034966 C0.390525284,47.2676231 0,44.5605098 0,41.7821567 C0,37.6858668 0.74554827,33.8032964 2.20114251,30.2056853 C3.40822066,27.2492326 5.0768287,24.4708795 7.24246891,21.9418657 C10.934708,17.5962365 14.8754631,15.2097024 16.4020619,14.3904444 C17.1121079,13.9986254 17.7866516,13.6424263 18.425693,13.3218471 C20.449324,12.2888696 22.2244389,11.3627519 24.7095998,9.40365674 C26.0586872,8.3706793 27.3367699,6.80340317 27.7982998,2.24405445 L28.0468159,0 L29.4669078,1.70975577 C31.632548,4.31000934 34.5792388,7.87200053 36.5673675,9.15431736 C38.2004733,10.2229147 39.8690813,10.9709329 41.6086939,11.7901908 C43.277302,12.538209 45.0169146,13.3218471 46.7565272,14.4260643 L46.8275318,14.4616842 C47.8926008,15.1384626 51.0878077,17.1331776 54.3185168,20.7664086 C56.6616685,23.4022821 58.5432904,26.3231149 59.8568754,29.4576671 C61.5254834,33.4114774 62.3775386,37.7214867 62.3775386,42.2808354 C62.3775386,46.6977045 61.5254834,50.9008541 59.8568754,54.7121847 C58.259272,58.3454157 55.9871249,61.5868277 53.1114387,64.293941 C50.2712548,66.9298145 46.969541,68.9957694 43.2417997,70.4561858 C39.5495606,71.8809822 35.5733032,72.6290004 31.4905388,72.6290004 Z M25.8811757,10.8640731 C23.2540056,12.930028 21.3368814,13.9273856 19.3132504,14.960363 C18.6742091,15.2809422 17.9996654,15.6371413 17.3251217,16.0289604 C14.7689562,17.4181369 1.95262642,25.2188976 1.95262642,41.7465368 C1.95262642,46.911424 3.26621147,51.755732 5.82237697,56.1369812 C11.1122195,65.1488189 20.9463562,70.7411451 31.5260411,70.7411451 C48.0701123,70.7411451 60.5669214,58.4878954 60.5669214,42.2808354 C60.5669214,34.4800747 58.0107559,27.6410516 52.9694295,22.0131056 C49.9162318,18.593594 46.8985364,16.6701188 45.8689698,16.0645803 L45.7979652,16.0289604 C44.1648594,14.9959829 42.4962514,14.2479648 40.898648,13.4999466 C39.1590353,12.7163086 37.3839204,11.8970506 35.6088055,10.7215935 C33.7626859,9.51051648 31.4550365,6.94588282 29.3959032,4.52372881 C28.8278664,7.4801815 27.7272952,9.43927666 25.8811757,10.8640731 Z" id="Shape" fill="#13405E" fill-rule="nonzero"></path>
                        <path d="M8.39681879,52.9948448 C7.93587736,52.9948448 7.29765076,53.2795049 7.29765076,54.3113979 C7.29765076,56.6954265 7.93587736,58.5812999 9.10595945,60.5383384 L9.81510012,62.8156195 L10.9142682,62.3886293 C8.11316252,59.3285328 7.36856482,54.3825629 8.75138912,54.0979028 C10.0632994,53.9555727 21.0549797,60.7518335 25.8416792,62.5665418 C35.8051055,66.3738712 41.690973,66.3738712 47.0449851,66.3738712 C47.5413835,66.0536285 48.7469227,66.4806187 49.2078641,66.1603761 C50.4843173,65.2708131 50.7679736,63.7407649 50.9098017,63.5628523 C48.4632664,65.4487257 46.4776725,65.4487257 42.9674262,65.4487257 C36.6206173,65.4487257 28.2527574,62.7444544 22.2605188,59.5064454 C16.0200809,56.1616888 10.1342134,52.9948448 8.39681879,52.9948448 Z" id="Shape" fill="#13405E" fill-rule="nonzero"></path>
                        <path d="M54.9004943,22.8382435 C55.1139436,23.4063026 51.4853052,18.9328372 51.3074308,19.9624443 C55.932166,25.8915612 46.1846471,39.8090092 33.8045867,44.0694525 C21.3178016,48.3653995 1.92948852,47.5843182 2.00063829,39.9865277 C2.00063829,39.9865277 1.07569124,43.1818602 1.50258988,44.4599931 C2.35638715,47.4423034 7.9772192,49.9630657 14.0249499,50.4956211 C15.1989211,52.7678575 18.8275595,58.5549596 25.6579377,58.5549596 C26.5828848,58.5549596 27.5434067,58.4484486 28.5395035,58.2354264 C37.3976502,56.2827232 39.1408196,49.1464807 39.4609936,45.8091335 C51.7699043,39.9865277 56.6792386,28.3058124 54.9004943,22.8382435 Z" id="Shape" fill="#13405E" fill-rule="nonzero"></path>
                        <path d="M59.0762204,39.789572 C58.2185431,41.4527069 57.2179196,42.7619833 56.2530327,43.9651021 C56.0386133,43.8235587 55.6455112,43.4697002 54.7163608,40.1080446 C55.0737264,41.8065653 55.0022533,44.9912917 54.2160491,46.5128832 C51.0354958,49.3083652 48.7840929,49.8745388 46.1753245,50.299169 C45.7464858,50.3699407 44.853072,50.299169 43.9596581,49.8037671 C45.0674913,52.3515482 46.0681148,53.342352 50.6781303,53.342352 C52.5364311,53.342352 53.5370546,51.8915322 54.9307802,50.4760982 C55.4310919,50.4053265 55.7527209,50.1222397 55.824194,49.4499086 C57.6110217,47.2206002 58.5044355,44.6374332 59.0762204,39.789572 Z" id="Shape" fill="#FFFFFF" fill-rule="nonzero"></path>
                        <path d="M41.7403194,55.9486558 C42.5876278,55.9486558 43.223109,56.3401247 44.0351129,56.7671817 C45.0236393,57.301003 45.8709476,57.7636481 45.8709476,58.155117 C45.8709476,58.3330575 45.7650341,58.6177621 45.3766844,58.6177621 C44.6705941,58.6177621 43.8232858,57.2298268 41.8815375,57.2298268 C40.2222253,57.2298268 38.9512628,58.9024668 37.5390823,58.9024668 C37.2213416,58.9024668 37.0095145,58.6889383 37.0095145,58.4398217 C37.0095145,57.7636481 37.8568229,57.6924719 39.1630899,56.873946 C40.0457028,56.3757128 40.7517931,55.9486558 41.7403194,55.9486558 Z" id="Shape" fill="#13405E" fill-rule="nonzero"></path>
                        <path d="M8.86143306,57.1649309 C14.4352024,63.2888147 18.5889032,65.7383683 24.8017034,67.5034877 C30.9435002,69.2686072 35.8782387,69.1245158 45.0021797,67.1792821 C38.1503485,69.1965615 32.0085517,70.2772468 24.5886931,68.2239446 C17.48835,66.2426881 12.9441304,62.7124492 8.86143306,57.1649309 Z" id="Shape" fill="#13405E" fill-rule="nonzero"></path>
                        <polygon id="Shape" fill="#13405E" fill-rule="nonzero" points="13.1961279 57.5124381 12.684012 61.2584477 13.3790264 63.7675673"></polygon>
                        <polygon id="Shape" fill="#13405E" fill-rule="nonzero" points="21.1979379 62.3775386 20.32917 66.2624907 20.6766771 67.9376535 20.9546829 66.5476248"></polygon>
                        <polygon id="Shape" fill="#13405E" fill-rule="nonzero" points="31.9706605 65.6788568 31.2784486 68.9341814 29.7118638 70.5439573 30.1854824 68.8626358"></polygon>
                        <polygon id="Shape" fill="#13405E" fill-rule="nonzero" points="39.789572 66.8951319 39.342777 68.3011643 38.2257897 69.5014358 38.7470504 68.2668708"></polygon>
                        <path d="M43.6121509,49.340909 C46.4082967,49.340909 50.8325779,47.5522691 53.2747811,45.5847652 C55.2568591,44.0107621 56.3186866,42.973351 58.9024668,39.789572 C57.0973601,43.1164422 54.4781856,46.8368132 51.2927031,48.804317 C48.7443172,50.3783201 47.3639414,50.7360481 46.0543542,50.7360481 C45.7004117,50.7360481 44.3200359,50.4856385 44.0368819,50.1279106 C43.8599107,49.9132738 43.7183337,49.6270914 43.6121509,49.340909 Z" id="Shape" fill="#13405E" fill-rule="nonzero"></path>
                        <path d="M43.6121509,49.2298499 C44.2196724,52.1095527 46.0779732,54.3848735 48.9368975,54.3848735 C52.6892356,54.3848735 55.3694772,51.718482 56.58452,49.1587461 C57.7280897,46.8478734 58.0139822,46.03018 58.7287132,42.0483686 C57.9067725,45.8524206 57.0133586,48.1632932 55.3337406,49.9764395 C53.7970688,51.6118263 51.8672949,53.1405574 49.1513168,53.1405574 C46.6854946,53.1405574 44.7914572,52.0384489 44.1839358,49.79868 C44.0767261,49.5853687 43.7550972,49.4787131 43.6121509,49.2298499 Z" id="Shape" fill="#13405E" fill-rule="nonzero"></path>
                        <path d="M56.296163,44.2388868 C55.7515622,43.2045179 55.3158815,42.2058169 54.734974,40.1370792 C55.2795748,44.3102226 54.4082135,46.3789603 53.8636127,46.9139787 L55.0617345,50.4451 C55.0617345,50.4451 55.2795748,51.0157863 55.6789487,52.2998304 C55.6789487,50.8017789 55.6789487,49.8744137 56.1509361,49.1967238 L56.296163,44.2388868 Z" id="Shape" fill="#FFFFFF" fill-rule="nonzero"></path>
                    </g>
                </g>
                <g id="Scroll/top" transform="translate(742.000000, 124.000000)">
                    <g>
                        <mask id="mask-2" fill="white">
                            <use xlink:href="#path-1"></use>
                        </mask>
                        <g id="Clip-2"></g>
                        <path d="M353.002088,0 L351.473922,0 C348.07939,0.262130802 344.993832,1.38138772 342.505343,3.08731833 C339.649427,5.07202297 337.607698,7.83479841 336.897894,10.9845288 C335.469936,10.0275434 333.849913,9.26195499 332.071229,8.73353258 C330.350999,8.20511017 328.480457,7.92633615 326.522234,7.92633615 C321.992016,7.92633615 317.904382,9.44919128 314.931557,11.9082278 C311.971258,14.3672644 310.138294,17.770804 310.138294,21.5196906 C310.138294,22.7180028 310.317833,23.8913502 310.672734,24.9981247 C311.027636,26.10906 311.553726,27.1659048 312.217601,28.1520159 C308.580901,28.193624 305.228122,29.2171824 302.530868,30.9189522 C299.750108,32.6664909 297.66245,35.1296882 296.689601,37.9798406 L154.641177,37.9798406 C144.816659,37.9174285 135.764574,37.5804032 127.45987,36.9687647 C119.176043,36.3529653 111.643773,35.4750352 104.867236,34.3308134 C101.643892,31.052098 99.9946419,27.8482771 99.8151033,25.0314112 C99.7232463,23.6333802 99.9946419,22.326887 100.604238,21.1618612 C101.209659,19.984353 102.186683,18.9399906 103.481031,18.0620605 C105.961168,16.3727731 109.664674,15.2951242 114.50804,15.0829231 L114.76691,15.0704407 L114.537267,14.9747421 C109.806634,12.9525902 105.063475,12.7279067 101.02177,13.7140178 C98.2451845,14.3880684 95.8026247,15.6404712 93.9320831,17.2673465 C92.0531909,18.8983826 90.7546677,20.9122128 90.2536297,23.1091186 C89.6440336,25.809482 90.2494544,28.7927801 92.4915991,31.7136662 C83.305904,29.3170417 76.0366789,26.238045 70.6964498,22.4808368 C65.3102922,18.6986639 61.8740072,14.2216362 60.3834194,9.04975387 L60.3040884,8.77514065 L60.2414586,9.05807548 C58.2999367,18.3449953 63.047271,25.4058837 74.491812,30.2490624 C85.1138158,34.7427332 101.522808,37.3307548 123.697911,37.9798406 L93.7775964,37.9798406 C88.6336072,37.3182724 82.8633205,36.5360408 77.4771629,35.2004219 C72.1118819,33.8564815 67.1349053,31.9591538 63.5858867,29.0216245 L63.5608348,28.988338 L63.5065557,29.0091421 C57.8030741,31.3267112 49.7321884,33.3904712 39.260496,35.1921003 C28.7846282,37.0020511 15.9330057,38.5457103 0.688927133,39.8313994 L0,39.8938115 L0.688927133,39.947902 C15.9330057,41.2335912 28.7846282,42.7814112 39.260496,44.5872011 C49.7321884,46.3929911 57.8030741,48.4567511 63.5065557,50.7743202 L63.5608348,50.7951242 L63.5858867,50.7618378 C65.7988042,48.9269222 69.456381,47.254278 74.5586171,45.7397445 C79.6107494,44.2501758 86.0783138,42.9228786 93.9112065,41.7953 L123.697911,41.7953 C101.522808,42.4568683 85.1138158,45.0365682 74.491812,49.5343999 C63.047271,54.3775785 58.2999367,61.4426278 60.2414586,70.7253868 L60.3040884,71 L60.3834194,70.7295476 C61.8740072,65.5576653 65.3102922,61.0889592 70.6964498,57.3067862 C76.0366789,53.5370956 83.305904,50.4622597 92.4915991,48.0739569 C90.2494544,50.9906821 89.6440336,53.9739803 90.2536297,56.6785045 C90.7546677,58.879571 92.0531909,60.8892405 93.9320831,62.5161158 C95.8026247,64.1429911 98.2451845,65.391233 101.02177,66.0611228 C105.063475,67.0472339 109.806634,66.8267112 114.537267,64.8087201 L114.76691,64.7130216 L114.50804,64.7005391 C109.664674,64.4800164 105.961168,63.4065284 103.481031,61.7214018 C102.186683,60.8476324 101.209659,59.7991092 100.604238,58.621601 C99.9946419,57.4524144 99.7232463,56.1542429 99.8151033,54.7562119 C99.9946419,51.9310244 101.643892,48.7230427 104.867236,45.4526489 C111.643773,44.2959447 119.176043,43.430497 127.464046,42.8146976 C135.764574,42.2072199 144.816659,41.8701946 154.641177,41.7953 L296.117583,41.7953 L304.760487,41.7953 L313.411742,41.7953 L313.482722,41.7953 L313.482722,41.7412096 C314.050565,33.3571847 318.756146,25.8469292 326.00867,20.4420417 C333.073305,15.1703 342.555447,11.8957454 353.002088,11.7501172 C363.444553,11.8957454 372.918345,15.1703 379.978804,20.4420417 C387.252204,25.8469292 391.94526,33.3571847 392.525629,41.7412096 L392.525629,41.7953 L392.588258,41.7953 L401.235338,41.7953 L409.878242,41.7953 L551.367174,41.7953 C561.170815,41.8701946 570.231251,42.2030591 578.531779,42.8146976 C586.819781,43.4263361 594.356227,44.3001055 601.124414,45.4526489 C604.351933,48.7230427 606.001183,51.9310244 606.193247,54.7562119 C606.280929,56.1542429 606.009533,57.4524144 605.387411,58.621601 C604.786166,59.7991092 603.817493,60.8476324 602.523145,61.7214018 C600.034656,63.4065284 596.326976,64.4800164 591.483609,64.7005391 L591.237266,64.7130216 L591.458557,64.8087201 C596.185015,66.8267112 600.936525,67.0472339 604.974055,66.0611228 C607.746465,65.391233 610.197375,64.1429911 612.063742,62.5161158 C613.942634,60.8892405 615.245332,58.8754102 615.742195,56.6785045 C616.355966,53.9739803 615.754721,50.9906821 613.50005,48.0739569 C622.685745,50.4622597 629.963321,53.5412564 635.30355,57.3067862 C640.681357,61.0889592 644.117642,65.5576653 645.620756,70.7295476 L645.700087,71 L645.750191,70.7253868 C647.700063,61.4426278 642.948554,54.3775785 631.512363,49.5343999 C620.886184,45.0365682 604.481368,42.4568683 582.293739,41.7953 L612.088793,41.7953 C619.925862,42.9228786 626.376725,44.2501758 631.445558,45.7397445 C636.539444,47.254278 640.205371,48.9269222 642.405763,50.7618378 L642.447516,50.7868026 L642.485094,50.7743202 C648.180225,48.4567511 656.271987,46.3929911 666.739504,44.5872011 C677.211196,42.7814112 690.066994,41.237752 705.306898,39.947902 L706,39.8896507 L705.306898,39.8313994 C690.066994,38.5457103 677.211196,37.0020511 666.739504,35.1921003 C656.271987,33.3904712 648.180225,31.3267112 642.485094,29.0091421 L642.447516,28.988338 L642.405763,29.0216245 C638.865095,31.9508322 633.892293,33.8564815 628.518662,35.2004219 C623.13668,36.5360408 617.358042,37.3182724 612.222404,37.9798406 L582.293739,37.9798406 C604.481368,37.3307548 620.886184,34.7427332 631.512363,30.2490624 C642.948554,25.4058837 647.700063,18.3449953 645.750191,9.05807548 L645.700087,8.77514065 L645.620756,9.04975387 C644.117642,14.2216362 640.681357,18.6986639 635.30355,22.4808368 C629.963321,26.2422058 622.685745,29.3212025 613.50005,31.7136662 C615.754721,28.7927801 616.355966,25.809482 615.742195,23.1091186 C615.245332,20.9122128 613.942634,18.8983826 612.063742,17.2631857 C610.197375,15.6404712 607.746465,14.3880684 604.974055,13.7140178 C600.936525,12.7279067 596.185015,12.9525902 591.458557,14.9747421 L591.237266,15.0704407 L591.483609,15.0829231 C596.326976,15.2951242 600.034656,16.3727731 602.523145,18.0537389 C603.817493,18.9399906 604.786166,19.984353 605.387411,21.1618612 C606.009533,22.326887 606.280929,23.6333802 606.193247,25.0230895 C606.001183,27.8482771 604.351933,31.052098 601.124414,34.3308134 C594.356227,35.479196 586.819781,36.3529653 578.531779,36.9687647 C570.231251,37.5804032 561.179166,37.9174285 551.367174,37.9798406 L409.318749,37.9798406 C408.325024,35.1296882 406.254067,32.6664909 403.473307,30.9189522 C400.771878,29.2171824 397.423274,28.193624 393.786574,28.1520159 C394.446274,27.1659048 394.972364,26.10906 395.327266,24.9981247 C395.673817,23.8913502 395.870057,22.7180028 395.870057,21.5196906 C395.870057,17.770804 394.024567,14.3672644 391.060093,11.9082278 C388.091443,9.44919128 384.003809,7.92633615 379.477766,7.92633615 C377.519543,7.92633615 375.653177,8.20511017 373.91207,8.73353258 C372.154262,9.26195499 370.534239,10.0275434 369.110457,10.9845288 C368.388127,7.83479841 366.346397,5.07202297 363.494657,3.08731833 C361.010344,1.38138772 357.92896,0.262130802 354.534429,0 L353.002088,0 Z" id="Fill-1" fill="#031A2C" mask="url(#mask-2)"></path>
                        <polygon id="Star-2" fill="#031A2C" points="278.5 64.25 270.564899 68.4217294 272.080369 59.5858647 265.660737 53.3282706 274.53245 52.0391353 278.5 44 282.46755 52.0391353 291.339263 53.3282706 284.919631 59.5858647 286.435101 68.4217294"></polygon>
                        <polygon id="Star-2" fill="#031A2C" points="231.5 64.25 223.564899 68.4217294 225.080369 59.5858647 218.660737 53.3282706 227.53245 52.0391353 231.5 44 235.46755 52.0391353 244.339263 53.3282706 237.919631 59.5858647 239.435101 68.4217294"></polygon>
                        <polygon id="Star-2" fill="#031A2C" points="184.5 64.25 176.564899 68.4217294 178.080369 59.5858647 171.660737 53.3282706 180.53245 52.0391353 184.5 44 188.46755 52.0391353 197.339263 53.3282706 190.919631 59.5858647 192.435101 68.4217294"></polygon>
                        <polygon id="Star-2" fill="#031A2C" points="137.5 64.25 129.564899 68.4217294 131.080369 59.5858647 124.660737 53.3282706 133.53245 52.0391353 137.5 44 141.46755 52.0391353 150.339263 53.3282706 143.919631 59.5858647 145.435101 68.4217294"></polygon>
                        <polygon id="Star-2" fill="#031A2C" points="565.5 64.25 557.564899 68.4217294 559.080369 59.5858647 552.660737 53.3282706 561.53245 52.0391353 565.5 44 569.46755 52.0391353 578.339263 53.3282706 571.919631 59.5858647 573.435101 68.4217294"></polygon>
                        <polygon id="Star-2" fill="#031A2C" points="518.5 64.25 510.564899 68.4217294 512.080369 59.5858647 505.660737 53.3282706 514.53245 52.0391353 518.5 44 522.46755 52.0391353 531.339263 53.3282706 524.919631 59.5858647 526.435101 68.4217294"></polygon>
                        <polygon id="Star-2" fill="#031A2C" points="471.5 64.25 463.564899 68.4217294 465.080369 59.5858647 458.660737 53.3282706 467.53245 52.0391353 471.5 44 475.46755 52.0391353 484.339263 53.3282706 477.919631 59.5858647 479.435101 68.4217294"></polygon>
                        <polygon id="Star-2" fill="#031A2C" points="424.5 64.25 416.564899 68.4217294 418.080369 59.5858647 411.660737 53.3282706 420.53245 52.0391353 424.5 44 428.46755 52.0391353 437.339263 53.3282706 430.919631 59.5858647 432.435101 68.4217294"></polygon>
                    </g>
                </g>
            </g>
        </g>
    </g>
</svg>
