
<svg width="567px" height="57px" viewBox="0 0 567 57" version="1.1" xmlns="http://www.w3.org/2000/svg" xmlns:xlink="http://www.w3.org/1999/xlink">
    <!-- Generator: Sketch 49 (51002) - http://www.bohemiancoding.com/sketch -->
    <desc>Created with Sketch.</desc>
    <defs>
        <polygon id="path-1" points="0 0 567 0 567 57 0 57"></polygon>
    </defs>
    <g id="BADCamp-Splash-Page-(In-Progress)" stroke="none" stroke-width="1" fill="none" fill-rule="evenodd">
        <g id="BADCAMP-Circus" transform="translate(-743.000000, -1421.000000)">
            <g id="region/about-copy" transform="translate(-71.000000, 868.000000)">
                <g id="Scroll/bottom" transform="translate(814.000000, 553.000000)">
                    <g id="Scroll--bottom">
                        <g id="Page-1" transform="translate(283.500000, 28.500000) scale(1, -1) translate(-283.500000, -28.500000) ">
                            <mask id="mask-2" fill="white">
                                <use xlink:href="#path-1"></use>
                            </mask>
                            <g id="Clip-2"></g>
                            <path d="M283.501677,0 L282.274382,0 C279.548179,0.210443038 277.070117,1.10900141 275.071572,2.47855134 C272.777939,4.07190577 271.138193,6.28990858 270.568139,8.8185654 C269.421322,8.05028129 268.120256,7.43565401 266.691766,7.01142757 C265.310221,6.58720113 263.807959,6.36339662 262.235278,6.36339662 C258.596987,6.36339662 255.314142,7.58597046 252.926619,9.56012658 C250.549155,11.5342827 249.077072,14.2667018 249.077072,17.2763713 C249.077072,18.2383966 249.221262,19.1803797 249.50629,20.068917 C249.791317,20.9607947 250.213828,21.8092475 250.746997,22.6009142 C247.826304,22.6343179 245.133634,23.4560478 242.967425,24.8222574 C240.734152,26.225211 239.05752,28.2027075 238.27621,30.4908579 L124.194826,30.4908579 C116.304597,30.4407525 109.034721,30.1701828 102.36508,29.6791491 C95.7122048,29.184775 89.6629172,28.4799578 84.2205702,27.5613572 C81.6318507,24.9291491 80.3073115,22.3570675 80.1631212,20.0956399 C80.0893494,18.9732771 80.3073115,17.9244023 80.796888,16.9890999 C81.2831113,16.0437764 82.067775,15.2053446 83.1072867,14.5005274 C85.0991253,13.144339 88.0734702,12.2791842 91.963256,12.1088256 L92.1711584,12.0988045 L91.9867289,12.0219761 C88.1874811,10.3985584 84.3781736,10.2181786 81.1322144,11.0098453 C78.9022941,11.5509845 76.9406348,12.5564346 75.4383727,13.8625176 C73.929404,15.1719409 72.886539,16.7886779 72.4841474,18.552391 C71.9945709,20.7202883 72.4807941,23.1153305 74.2814967,25.4602672 C66.9043167,23.5362166 61.0662846,21.064346 56.7774604,18.0479958 C52.4517503,15.0116034 49.6920143,11.4173699 48.4948991,7.26529536 L48.4311871,7.04483122 L48.3808882,7.27197609 C46.8216206,14.7276723 50.6342814,20.3962729 59.8255771,24.2844585 C68.3562798,27.8920534 81.534606,29.9697609 99.3437894,30.4908579 L75.3143019,30.4908579 C71.1830811,29.9597398 66.5488707,29.3317511 62.2231606,28.2594937 C57.9142168,27.1805556 53.9171265,25.6573488 51.0668524,23.2990506 L51.0467328,23.2723277 L51.0031404,23.2890295 C46.4225822,25.1496132 39.9407235,26.8064346 31.5307383,28.2528129 C23.1173997,29.705872 12.7960541,30.9451477 0.553288505,31.9773207 L0,32.0274262 L0.553288505,32.0708509 C12.7960541,33.1030239 23.1173997,34.3456399 31.5307383,35.7953586 C39.9407235,37.2450774 46.4225822,38.9018987 51.0031404,40.7624824 L51.0467328,40.7791842 L51.0668524,40.7524613 C52.8440821,39.2793601 55.7815411,37.9365331 59.8792293,36.7206399 C63.9366783,35.524789 69.1308837,34.4592124 75.4216064,33.5539733 L99.3437894,33.5539733 C81.534606,34.0850914 68.3562798,36.1561181 59.8255771,39.7670534 C50.6342814,43.6552391 46.8216206,49.32718 48.3808882,56.7795359 L48.4311871,57 L48.4948991,56.7828762 C49.6920143,52.6308017 52.4517503,49.0432489 56.7774604,46.0068565 C61.0662846,42.9804852 66.9043167,40.511955 74.2814967,38.5945851 C72.4807941,40.9361814 71.9945709,43.3312236 72.4841474,45.5024613 C72.886539,47.2695148 73.929404,48.8829114 75.4383727,50.1889944 C76.9406348,51.4950774 78.9022941,52.4971871 81.1322144,53.0349859 C84.3781736,53.8266526 88.1874811,53.6496132 91.9867289,52.0295359 L92.1711584,51.9527075 L91.963256,51.9426864 C88.0734702,51.765647 85.0991253,50.9038326 83.1072867,49.5509845 C82.067775,48.8495077 81.2831113,48.0077356 80.796888,47.0624121 C80.3073115,46.1237693 80.0893494,45.0815752 80.1631212,43.9592124 C80.3073115,41.6911041 81.6318507,39.1156821 84.2205702,36.4901547 C89.6629172,35.5615331 95.7122048,34.866737 102.368433,34.3723629 C109.034721,33.8846695 116.304597,33.6140999 124.194826,33.5539733 L237.816812,33.5539733 L244.758068,33.5539733 L251.706031,33.5539733 L251.763036,33.5539733 L251.763036,33.5105485 C252.21908,26.7797117 255.998208,20.7503516 261.822827,16.4112166 C267.496549,12.1789733 275.111811,9.55010549 283.501677,9.43319269 C291.888189,9.55010549 299.496744,12.1789733 305.167113,16.4112166 C311.008498,20.7503516 314.777567,26.7797117 315.24367,33.5105485 L315.24367,33.5539733 L315.293969,33.5539733 L322.238579,33.5539733 L329.179834,33.5539733 L442.81188,33.5539733 C450.685343,33.6140999 457.961925,33.8813291 464.628214,34.3723629 C471.284442,34.8633966 477.337083,35.5648734 482.772723,36.4901547 C485.364796,39.1156821 486.689335,41.6911041 486.843585,43.9592124 C486.914004,45.0815752 486.696042,46.1237693 486.196405,47.0624121 C485.713535,48.0077356 484.935578,48.8495077 483.896067,49.5509845 C481.897521,50.9038326 478.919823,51.765647 475.030037,51.9426864 L474.832195,51.9527075 L475.009918,52.0295359 C478.805812,53.6496132 482.621826,53.8266526 485.864432,53.0349859 C488.090999,52.4971871 490.059365,51.4950774 491.558274,50.1889944 C493.067243,48.8829114 494.113461,47.2661744 494.512499,45.5024613 C495.005429,43.3312236 494.522559,40.9361814 492.711797,38.5945851 C500.088977,40.511955 505.933715,42.9838256 510.22254,46.0068565 C514.541543,49.0432489 517.301279,52.6308017 518.508454,56.7828762 L518.572166,57 L518.612405,56.7795359 C520.178379,49.32718 516.362365,43.6552391 507.177776,39.7670534 C498.64372,36.1561181 485.468747,34.0850914 467.649504,33.5539733 L491.578394,33.5539733 C497.87247,34.4592124 503.053262,35.524789 507.124124,36.7206399 C511.215106,37.9365331 514.159271,39.2793601 515.926441,40.7524613 L515.959974,40.7725035 L515.990153,40.7624824 C520.564005,38.9018987 527.06263,37.2450774 535.469262,35.7953586 C543.879247,34.3456399 554.203946,33.1063643 566.443358,32.0708509 L567,32.0240858 L566.443358,31.9773207 C554.203946,30.9451477 543.879247,29.705872 535.469262,28.2528129 C527.06263,26.8064346 520.564005,25.1496132 515.990153,23.2890295 L515.959974,23.2723277 L515.926441,23.2990506 C513.082874,25.6506681 509.089136,27.1805556 504.773486,28.2594937 C500.451129,29.3317511 495.810212,29.9597398 491.685698,30.4908579 L467.649504,30.4908579 C485.468747,29.9697609 498.64372,27.8920534 507.177776,24.2844585 C516.362365,20.3962729 520.178379,14.7276723 518.612405,7.27197609 L518.572166,7.04483122 L518.508454,7.26529536 C517.301279,11.4173699 514.541543,15.0116034 510.22254,18.0479958 C505.933715,21.0676864 500.088977,23.539557 492.711797,25.4602672 C494.522559,23.1153305 495.005429,20.7202883 494.512499,18.552391 C494.113461,16.7886779 493.067243,15.1719409 491.558274,13.8591772 C490.059365,12.5564346 488.090999,11.5509845 485.864432,11.0098453 C482.621826,10.2181786 478.805812,10.3985584 475.009918,12.0219761 L474.832195,12.0988045 L475.030037,12.1088256 C478.919823,12.2791842 481.897521,13.144339 483.896067,14.4938467 C484.935578,15.2053446 485.713535,16.0437764 486.196405,16.9890999 C486.696042,17.9244023 486.914004,18.9732771 486.843585,20.0889592 C486.689335,22.3570675 485.364796,24.9291491 482.772723,27.5613572 C477.337083,28.4832982 471.284442,29.184775 464.628214,29.6791491 C457.961925,30.1701828 450.69205,30.4407525 442.81188,30.4908579 L328.730497,30.4908579 C327.93242,28.2027075 326.269201,26.225211 324.035928,24.8222574 C321.866366,23.4560478 319.177049,22.6343179 316.256356,22.6009142 C316.786172,21.8092475 317.208683,20.9607947 317.49371,20.068917 C317.772031,19.1803797 317.929635,18.2383966 317.929635,17.2763713 C317.929635,14.2667018 316.447492,11.5342827 314.066675,9.56012658 C311.682504,7.58597046 308.399659,6.36339662 304.764722,6.36339662 C303.192041,6.36339662 301.693132,6.58720113 300.294821,7.01142757 C298.883097,7.43565401 297.582031,8.05028129 296.438568,8.8185654 C295.858453,6.28990858 294.218707,4.07190577 291.928428,2.47855134 C289.933236,1.10900141 287.458528,0.210443038 284.732324,0 L283.501677,0 Z" id="Fill-1" fill="#031A2C" mask="url(#mask-2)"></path>
                        </g>
                        <polygon id="Star-2" fill="#031A2C" points="283.5 32.25 275.564899 36.4217294 277.080369 27.5858647 270.660737 21.3282706 279.53245 20.0391353 283.5 12 287.46755 20.0391353 296.339263 21.3282706 289.919631 27.5858647 291.435101 36.4217294"></polygon>
                    </g>
                </g>
            </g>
        </g>
    </g>
</svg>
