
<svg width="90px" height="77px" viewBox="0 0 90 77" version="1.1" xmlns="http://www.w3.org/2000/svg" xmlns:xlink="http://www.w3.org/1999/xlink">
    <!-- Generator: Sketch 49 (51002) - http://www.bohemiancoding.com/sketch -->
    <desc>Created with Sketch.</desc>
    <defs></defs>
    <g id="BADCamp-Splash-Page-(In-Progress)" stroke="none" stroke-width="1" fill="none" fill-rule="evenodd">
        <g id="BADCAMP-Circus" transform="translate(-1445.000000, -1128.000000)">
            <g id="region/about-copy" transform="translate(-71.000000, 868.000000)">
                <polygon id="Star-blue" fill="#4799B5" transform="translate(1590.999537, 320.525692) scale(-1, 1) rotate(-17.000000) translate(-1590.999537, -320.525692) " points="1590.99954 329.656019 1581.98736 334.393998 1583.70854 324.358797 1576.41754 317.251829 1586.49345 315.787713 1590.99954 306.657385 1595.50562 315.787713 1605.58154 317.251829 1598.29054 324.358797 1600.01171 334.393998"></polygon>
                <polygon id="Star-yellow" fill="#C2993B" transform="translate(1539.338603, 286.338603) scale(-1, 1) rotate(-17.000000) translate(-1539.338603, -286.338603) " points="1539.3386 300.088603 1523.17451 308.58657 1526.26158 290.587586 1513.18455 277.840635 1531.25656 275.214619 1539.3386 258.838603 1547.42065 275.214619 1565.49266 277.840635 1552.41563 290.587586 1555.5027 308.58657"></polygon>
            </g>
        </g>
    </g>
</svg>
